<svg fill="none" height="48" viewBox="0 0 415 48" width="415" xmlns="http://www.w3.org/2000/svg" xmlns:xlink="http://www.w3.org/1999/xlink"><clipPath id="a"><path d="m258 0h156.42v48h-156.42z"/></clipPath><clipPath id="b"><path d="m0 0h179.892v48h-179.892z"/></clipPath><g clip-path="url(#a)" fill="#fff"><path d="m258 0h12v25.0836l6 5.9452 6-5.9452v-25.0836h12l-.023 30.0234-17.976 17.9766-17.978-17.9766z"/><path d="m390.168 12h24v12h-12v24h-24v-12h12z"/><path d="m302.056 12v36h12v-24h12v-12z"/><path clip-rule="evenodd" d="m346.112 0v12h24v36h-24v-12h12v-12h-12v11.9161h-12v-35.9161z" fill-rule="evenodd"/></g><g clip-path="url(#b)"><path clip-rule="evenodd" d="m47.5823 23.7911c0 13.1395-10.6703 23.7912-23.8327 23.7912-12.4877 0-22.73217-9.5877-23.7496-21.7913h31.5013v-3.9997h-31.5013c1.01743-12.20367 11.2619-21.7913 23.7496-21.7913 13.1624 0 23.8327 10.6516 23.8327 23.7911zm88.3567 19.4807c8.258 0 13.674-4.4506 13.674-11.1537 0-6.2204-4.076-9.1698-10.242-10.1886l-5.47-.9117c-4.183-.6971-6.971-2.5203-6.971-6.5422 0-4.0754 3.11-7.18561 9.009-7.18561 5.738 0 8.687 2.89571 9.008 7.02481h4.13c-.322-5.46969-4.505-10.34953-13.085-10.34953-8.472 0-13.138 4.77255-13.138 10.67123 0 6.2741 4.237 9.1698 10.028 10.1351l5.524.8579c4.611.8044 7.185 2.6813 7.185 6.6495 0 4.6653-3.807 7.6683-9.599 7.6683-6.005 0-9.759-2.8957-10.081-7.8292h-4.075c.321 6.4349 5.255 11.1537 14.103 11.1537zm-60.88-.7506h-15.0149v-37.75156h14.4787c6.3814 0 10.832 3.75369 10.832 9.75966 0 4.3436-2.4666 7.2393-6.4346 8.2045v.1609c4.7187.9116 7.6143 4.1291 7.6143 9.1698 0 6.4885-4.7724 10.4567-11.4755 10.4567zm-1.0724-21.1816c4.5582 0 7.3466-2.4667 7.3466-6.3277v-.5363c0-3.8609-2.7884-6.274-7.3466-6.274h-9.9205v13.138zm.4826 17.7497c4.9872 0 8.0436-2.7349 8.0436-6.9176v-.5362c0-4.3436-3.11-6.9712-8.0973-6.9712h-10.3494v14.425zm44.5428 3.4319h-4.29l-3.217-10.2422h-15.0151l-3.2173 10.2422h-4.0756l12.387-37.75156h4.88zm-14.8-33.62247h-.322l-6.3276 20.00187h12.9236zm51.442 33.62247v-37.75156h24.238v3.48558h-20.216v12.97718h18.607v3.4319h-18.607v14.3713h20.216v3.4856z" fill="#fff" fill-rule="evenodd"/></g><path d="m216.303 34v-20h3.394v20zm-8.303-8.303v-3.394h20v3.394z" fill="#fff"/></svg>