<svg fill="none" height="317" viewBox="0 0 672 317" width="672" xmlns="http://www.w3.org/2000/svg"><g fill="#029155"><path d="m169 0h35.75v74.7282l17.875 17.7121 17.875-17.7121v-74.7282h35.75l-.069 89.4449-53.554 53.5551-53.558-53.5551z"/><path d="m300.25 35.75v107.25h35.75v-71.5h35.75v-35.75z"/><path clip-rule="evenodd" d="m431.5 0v35.75h71.5v107.25h-71.5v-35.75h35.75v-35.75h-35.75v35.5h-35.75v-107z" fill-rule="evenodd"/><path d="m29.792 302.72c-3.4347 0-6.0853-.933-7.952-2.8-1.792-1.867-2.688-4.517-2.688-7.952v-90.048c0-3.435.896-6.085 2.688-7.952 1.8667-1.867 4.5173-2.8 7.952-2.8h17.808v8.288h-16.912c-1.792 0-2.688.933-2.688 2.8v89.264c0 1.867.896 2.8 2.688 2.8h16.912v8.4zm44.7562-20.72v-78.4h26.0958c8.139 0 14.262 1.867 18.368 5.6 4.107 3.733 6.16 8.512 6.16 14.336 0 4.555-1.232 8.325-3.696 11.312-2.464 2.912-5.226 4.965-8.288 6.16v.784c3.659 1.195 6.87 3.36 9.632 6.496 2.763 3.136 4.144 7.168 4.144 12.096 0 4.032-1.008 7.691-3.024 10.976-1.941 3.211-4.816 5.787-8.624 7.728-3.733 1.941-8.325 2.912-13.776 2.912zm9.4081-44.576h16.016c5.0027 0 8.8107-1.083 11.4237-3.248 2.688-2.24 4.032-5.451 4.032-9.632 0-3.957-1.306-7.019-3.92-9.184-2.613-2.165-6.57-3.248-11.8717-3.248h-15.68zm0 35.952h16.5757c5.376 0 9.52-1.195 12.432-3.584 2.912-2.464 4.368-5.899 4.368-10.304s-1.53-7.803-4.592-10.192c-3.061-2.464-7.205-3.696-12.432-3.696h-16.3517zm80.0367 9.968c-6.72 0-11.798-2.016-15.232-6.048-3.435-4.032-5.152-9.856-5.152-17.472v-33.376h9.408v32.256c0 4.928 1.082 8.811 3.248 11.648 2.24 2.763 5.6 4.144 10.08 4.144s8.25-1.493 11.312-4.48c3.061-3.061 4.592-7.429 4.592-13.104v-30.464h9.408v55.552h-7.84l-1.008-8.4h-.56c-1.494 2.688-3.846 5.003-7.056 6.944-3.211 1.867-6.944 2.8-11.2 2.8zm70.404-66.752c-2.24 0-4.107-.747-5.6-2.24-1.494-1.493-2.24-3.285-2.24-5.376 0-2.165.746-3.957 2.24-5.376 1.493-1.493 3.36-2.24 5.6-2.24 2.165 0 3.994.747 5.488 2.24 1.568 1.419 2.352 3.211 2.352 5.376 0 2.091-.784 3.883-2.352 5.376-1.494 1.493-3.323 2.24-5.488 2.24zm-21.728 65.408v-8.064h17.696v-36.624c0-1.867-.934-2.8-2.8-2.8h-12.992v-8.064h15.232c6.645 0 9.968 3.323 9.968 9.968v37.52h17.696v8.064zm64.356 0v-8.064h18.928v-61.712c0-1.867-.933-2.8-2.8-2.8h-14.112v-8.064h16.352c3.211 0 5.675.859 7.392 2.576s2.576 4.181 2.576 7.392v62.608h18.928v8.064zm90.452 1.344c-4.704 0-8.922-1.12-12.656-3.36-3.658-2.24-6.533-5.525-8.624-9.856-2.09-4.405-3.136-9.744-3.136-16.016 0-6.197 1.046-11.461 3.136-15.792 2.091-4.331 4.966-7.616 8.624-9.856 3.734-2.24 7.952-3.36 12.656-3.36 4.406 0 8.027.859 10.864 2.576 2.912 1.717 5.078 3.957 6.496 6.72v-33.04h9.408v80.64h-7.728l-1.008-8.624h-.672c-1.493 3.061-3.696 5.488-6.608 7.28s-6.496 2.688-10.752 2.688zm1.232-8.96c4.704 0 8.587-1.643 11.648-4.928 3.062-3.36 4.592-8.437 4.592-15.232s-1.53-11.835-4.592-15.12c-3.061-3.36-6.944-5.04-11.648-5.04s-8.586 1.68-11.648 5.04c-2.986 3.285-4.48 8.325-4.48 15.12s1.494 11.872 4.48 15.232c3.062 3.285 6.944 4.928 11.648 4.928zm68.389 8.96c-5.227 0-9.856-1.195-13.888-3.584-3.958-2.464-7.094-5.861-9.408-10.192-2.315-4.405-3.473-9.52-3.473-15.344s1.121-10.901 3.361-15.232c2.314-4.405 5.488-7.803 9.52-10.192 4.032-2.464 8.736-3.696 14.112-3.696s9.968 1.232 13.776 3.696c3.808 2.389 6.72 5.563 8.736 9.52s3.024 8.213 3.024 12.768c0 .821-.038 1.643-.112 2.464v2.8h-43.12c.224 4.107 1.157 7.541 2.8 10.304 1.717 2.688 3.845 4.704 6.384 6.048 2.613 1.344 5.376 2.016 8.288 2.016 4.106 0 7.317-.859 9.632-2.576 2.314-1.717 4.069-4.107 5.264-7.168h9.296c-1.27 5.152-3.92 9.52-7.952 13.104-4.032 3.509-9.446 5.264-16.24 5.264zm0-49.84c-4.331 0-8.139 1.307-11.424 3.92-3.211 2.613-5.19 6.272-5.936 10.976h33.824c-.299-4.629-1.979-8.251-5.04-10.864-2.987-2.688-6.795-4.032-11.424-4.032zm42.404 48.496v-8.064h14.224v-36.624c0-1.867-.896-2.8-2.688-2.8h-10.08v-8.064h13.552c2.464 0 4.442.672 5.936 2.016 1.493 1.344 2.24 3.323 2.24 5.936v2.352h.448c.896-3.733 2.576-6.608 5.04-8.624 2.538-2.016 6.048-3.024 10.528-3.024h10.192v9.968h-11.536c-4.555 0-8.064 1.531-10.528 4.592-2.464 2.987-3.696 6.832-3.696 11.536v22.736h17.472v8.064zm91.908 1.344c-7.093 0-12.843-1.643-17.248-4.928-4.331-3.36-6.757-7.952-7.28-13.776h9.744c.448 3.061 1.941 5.563 4.48 7.504 2.613 1.941 6.123 2.912 10.528 2.912 4.181 0 7.28-.896 9.296-2.688 2.091-1.792 3.136-3.845 3.136-6.16 0-3.136-1.232-5.264-3.696-6.384-2.464-1.195-6.16-2.091-11.088-2.688-5.899-.672-10.789-2.277-14.672-4.816s-5.824-6.347-5.824-11.424c0-4.555 1.904-8.325 5.712-11.312s8.997-4.48 15.568-4.48c6.496 0 11.611 1.493 15.344 4.48 3.733 2.912 5.861 7.093 6.384 12.544h-9.296c-.224-2.688-1.531-4.816-3.92-6.384-2.315-1.643-5.227-2.464-8.736-2.464-3.659 0-6.496.709-8.512 2.128-2.016 1.344-3.024 3.136-3.024 5.376s1.12 4.107 3.36 5.6c2.315 1.419 5.936 2.352 10.864 2.8 3.883.448 7.429 1.195 10.64 2.24s5.749 2.688 7.616 4.928c1.941 2.24 2.912 5.376 2.912 9.408.075 3.36-.859 6.384-2.8 9.072-1.867 2.613-4.48 4.704-7.84 6.272-3.36 1.493-7.243 2.24-11.648 2.24zm52.596 19.376v-8.4h16.912c1.792 0 2.688-.933 2.688-2.8v-89.264c0-1.867-.896-2.8-2.688-2.8h-16.912v-8.288h17.808c3.435 0 6.048.933 7.84 2.8 1.867 1.867 2.8 4.517 2.8 7.952v90.048c0 3.435-.933 6.085-2.8 7.952-1.792 1.867-4.405 2.8-7.84 2.8z"/></g></svg>