<svg height="800" viewBox="0 0 300.439 300.439" width="800" xmlns="http://www.w3.org/2000/svg"><path d="m276.967 0h-84.498l-122.054 178.385h84.498z" fill="#bf392c"/><path d="m23.472 0h84.498l122.053 178.385h-84.498z" fill="#e2574c"/><path d="m154.914 93.887c57.271 0 103.276 46.005 103.276 103.276s-46.005 103.276-103.276 103.276-103.276-46.005-103.276-103.276 46.005-103.276 103.276-103.276z" fill="#efc75e"/><path d="m154.914 122.053c-41.31 0-75.11 33.799-75.11 75.11s33.799 75.11 75.11 75.11 75.11-33.799 75.11-75.11-33.8-75.11-75.11-75.11zm0 131.442c-30.983 0-56.332-25.35-56.332-56.332s25.35-56.332 56.332-56.332 56.332 25.35 56.332 56.332-25.35 56.332-56.332 56.332z" fill="#d7b354"/></svg>