<svg height="708.31655" viewBox="0 0 885.20079 708.31655" width="885.20079" xmlns="http://www.w3.org/2000/svg"><g fill="#f0f0f0"><g transform="translate(-157.39961 -95.84172)"><path d="m305.95759 803.97637s-12.753-31.391 25.505-54.934z"/><path d="m290.27363 803.40533s-3.89-22.374-34-22.182z"/><path d="m732.95759 803.97637s-12.753-31.391 25.505-54.934z"/><path d="m717.27363 803.40533s-3.89-22.374-34-22.182z"/></g><circle cx="565.05368" cy="394.03053" r="110.8529"/><path d="m565.358 394.03h.305l5.482 314.287h-11.573z"/><circle cx="803.05368" cy="479.08542" r="80.8529"/><path d="m803.276 479.085h.222l3.998 229.232h-8.441z"/></g><path d="m512.72772 575.74828a10.6636 10.6636 0 0 0 8.99946-13.652l30.73482-22.16752-18.40925-6.99159-26.364 22.12251a10.72142 10.72142 0 0 0 5.03894 20.6886z" fill="#ffb6b6" transform="translate(-157.39961 -95.84172)"/><path d="m332.796 697.353-9.759-.001-4.643-37.642h14.404z" fill="#ffb6b6"/><path d="m492.68433 802.65467-31.4677-.00116v-.398a12.24876 12.24876 0 0 1 12.24811-12.24791h.00077l19.2194.00078z" fill="#2f2e41" transform="translate(-157.39961 -95.84172)"/><path d="m258.253 697.353-9.759-.001-4.642-37.642h14.403z" fill="#ffb6b6"/><path d="m418.14189 802.65467-31.4677-.00116v-.398a12.24876 12.24876 0 0 1 12.2481-12.24791h.00078l19.2194.00078z" fill="#2f2e41" transform="translate(-157.39961 -95.84172)"/><path d="m265.791 488.031-20.682 113.104-7.234 89.838 23.486-1.155 13.369-87.24 33.23-75.96 9.89 162.99 21.62.07 11.633-206.171z" fill="#2f2e41"/><g transform="translate(-157.39961 -95.84172)"><path d="m511.15006 454.415-28.9889-11.5343-33.25612 3.805-28.19283 15.5853s8.624 108.15764-3.87664 133.52747c0 0 10.016 13.87358 50.82643 10.48683 0 0 39.75312-5.02431 40.73853-18.06008s1.19332-36.737 1.19332-36.737l13.7989-47.55075z" fill="#fe6b8b"/><path d="m432.044 464.353-11.33183-2.082s-12.05733 5.28675-11.93358 21.04064-21.30125 68.5705 4.33154 70.78479 18.93387-37.4541 18.93387-37.4541z" fill="#fe6b8b"/><path d="m501.95577 461.12606 9.19429-6.71109s14.03761 3.17112 19.23007 14.47145c0 0 57.56571 41.74991 41.73193 57.58369s-48.11032 35.3215-48.11032 35.3215l-11.95038-13.53107 29.64882-26.85964-24.323-22.15808z" fill="#fe6b8b"/><path d="m487.25519 412.89322a23.79938 23.79938 0 0 1 -47.59875 0v-.91349a23.79938 23.79938 0 0 1 47.5805.91349z" fill="#ffb6b6"/><path d="m467.0732 409.05658c1.52248-.24969 3.17286-.4872 4.537.21315 2.96578 1.51639 2.28371 5.81587 3.90361 8.65377.63944 1.12664 1.67473 2.04621 2.101 3.26419s.16444 2.74046.83432 3.91581c.96831 1.69909 3.59306 1.94877 5.31648.93785a8.45465 8.45465 0 0 0 3.33726-4.7075c.57245-1.61992 1.05354-3.41036 2.436-4.47a5.16406 5.16406 0 0 0 1.33369-1.09009 3.28853 3.28853 0 0 0 .31669-1.86351c0-4.11678-.63944-7.3079.2923-11.29679 1.492-6.43095 2.85617-9.60989-1.86961-14.37829a16.35142 16.35142 0 0 0 -8.90345-4.55526c-3.045-.49937-7.52712 3.75139-10.60862 3.654-7.83771-.31059-14.45135-7.56976-21.92369-5.22515a15.4197 15.4197 0 0 0 -8.05085 5.92549c-3.65394 5.38348-3.3251 7.46623-2.79528 13.89109a2.37518 2.37518 0 0 0 .408 1.37023c.27406.32886.71861.50547.98656.84041a2.07669 2.07669 0 0 1 .3045 1.49813 10.07846 10.07846 0 0 1 -.7247 3.045 1.25445 1.25445 0 0 0 -.10962 1.09619 1.10836 1.10836 0 0 0 .609.41411c3.04495 1.09619 6.33352-1.017 9.59161-.96221s6.35178 2.235 9.71342 1.76c2.96583-.45686 5.97425-1.43734 8.96438-1.93062z" fill="#2f2e41"/><path d="m466.91564 541.3665a2.839 2.839 0 0 1 -.62927.16221l-26.42713 3.689a2.844 2.844 0 0 1 -3.0613-1.8043l-22.74754-59.191a2.85615 2.85615 0 0 1 2.044-3.81247h.00014l24.852-5.54586a2.27074 2.27074 0 0 0 .55162-.20179l24.17208-12.63793a2.82911 2.82911 0 0 1 .58762-.22869l26.60157-7.0917a2.85071 2.85071 0 0 1 3.402 1.73517l19.83447 51.61088a2.842 2.842 0 0 1 -.37523 2.73061l-6.85952 9.21159a2.85239 2.85239 0 0 1 -1.26638.96006l-14.991 5.76115a2.255 2.255 0 0 0 -.3115.14808l-24.98027 14.31676a2.85632 2.85632 0 0 1 -.39636.18823z" fill="#fff"/><path d="m479.21094 462.59444-3.37808.90095-8.95188 2.38755-.016.00366-12.2558 6.40829-4.54822 2.37858-.00212.00081-6.831 3.57118-.18734.0422-7.09623 1.58249-3.42961.76682-13.9882 3.12134 21.95971 57.14092 14.41468-2.01148 3.53438-.49425 7.53322-1.0528.08744-.01126 24.207-13.87392 14.72819-5.66016 6.72448-9.02982-19.11548-49.74007z" fill="#e4e4e4"/></g><path d="m420.95351 481.09788h78.01578v3.47642h-78.01578z" fill="#fff" transform="matrix(.93344182 -.35872884 .35872884 .93344182 -299.99264 101.29638)"/><path d="m425.11051 491.91473h78.01578v3.47642h-78.01578z" fill="#fff" transform="matrix(.93344182 -.35872884 .35872884 .93344182 -303.59627 103.50757)"/><path d="m433.5076 513.76471h78.01578v3.47642h-78.01578z" fill="#fff" transform="matrix(.93344182 -.35872884 .35872884 .93344182 -310.87559 107.97414)"/><path d="m321.811 366.753 21.802 56.73-3.245 1.247-21.935-57.076z" fill="#fff"/><path d="m297.21 376.453-4.477 12.457-1.552 4.32-3.621 10.082-.776 2.155-.777 2.166-1.022 2.843-7.339 20.425-1.908-4.965 5.984-16.656 1.354-3.771.198-.55 1.601-4.459 2.02-5.622 1.553-4.322 4.211-11.723.002-.001z" fill="#fff"/><path d="m278.545 384.028 22.49 58.524-3.534.494-22.386-58.251z" fill="#fff"/><circle cx="273.73095" cy="429.7149" fill="#ffb6b6" r="10.35285"/><circle cx="701.22511" cy="183.97567" fill="#e4e4e4" r="183.97568"/><path d="m994.46643 156.93609a183.99 183.99 0 0 1 -306.55786 194.71447 183.99152 183.99152 0 1 0 306.55786-194.71447z" opacity=".1" transform="translate(-157.39961 -95.84172)"/><path d="m700.72 183.975h-.506l-9.098 521.602h19.207z" fill="#e4e4e4"/><path d="m992.39961 803.64322h-834a1 1 0 0 1 0-2h834a1 1 0 0 1 0 2z" fill="#cacaca" transform="translate(-157.39961 -95.84172)"/></svg>