<svg height="480.95111" viewBox="0 0 753 480.95111" width="753" xmlns="http://www.w3.org/2000/svg"><path d="m372.67989 690.09163-2-.03906a463.83342 463.83342 0 0 1 7.09961-66.28711c8.64844-46.88086 23.02929-77.66992 42.74316-91.51172l1.14844 1.63672c-46.05176 32.33398-48.96777 154.96582-48.99121 156.20117z" fill="#2f2e41" transform="translate(-223.5 -209.52444)"/><path d="m397.67989 689.61311-2-.03906c.043-2.21484 1.293-54.41406 21.84277-68.8418l1.14844 1.63672c-19.7207 13.84571-20.98145 66.71192-20.99121 67.24414z" fill="#2f2e41" transform="translate(-223.5 -209.52444)"/><circle cx="209.54903" cy="314.54765" fill="#fe6b8b" r="10.00001"/><circle cx="204.59688" cy="400.54767" fill="#fe6b8b" r="10"/><path d="m393.01866 540.06667c1.87935 12.004-3.0189 22.7406-3.0189 22.7406s-7.9453-8.72583-9.82465-20.72986 3.01891-22.7406 3.01891-22.7406 7.94528 8.72583 9.82464 20.72986z" fill="#2f2e41" transform="translate(-223.5 -209.52444)"/><path d="m425.70583 569.22047c-11.493 3.9422-22.91878.98963-22.91878.98963s7.20793-9.34412 18.70088-13.28632 22.9188-.98962 22.9188-.98962-7.20795 9.34412-18.7009 13.28631z" fill="#2f2e41" transform="translate(-223.5 -209.52444)"/><path d="m426.07508 645.38161a31.13456 31.13456 0 0 1 -16.06421.69366 28.37369 28.37369 0 0 1 29.172-10.00628 31.13431 31.13431 0 0 1 -13.10779 9.31262z" fill="#2f2e41" transform="translate(-223.5 -209.52444)"/><path d="m606.671 467.453h-13.14l-6.251-50.685 19.394.001z" fill="#9e616a"/><path d="m833.52257 689.71536-42.3702-.00157v-.53592a16.49256 16.49256 0 0 1 16.49166-16.4914h.001l25.87827.001z" fill="#2f2e41" transform="translate(-223.5 -209.52444)"/><path d="m525.57 467.453h-13.141l-6.251-50.685 19.394.001z" fill="#9e616a"/><path d="m752.421 689.71536-42.3702-.00157v-.53592a16.49256 16.49256 0 0 1 16.49166-16.4914h.00105l25.87827.001z" fill="#2f2e41" transform="translate(-223.5 -209.52444)"/><path d="m716.28867 393.14081-18.19929-2.81212-5.87957 9.464-63.27234 16.12848.1713.87221a11.90415 11.90415 0 1 0 2.58765 12.30932l76.62458-15.98085z" fill="#9e616a" transform="translate(-223.5 -209.52444)"/><path d="m898.0541 381.87169a11.85506 11.85506 0 0 0 -4.37548.841l.36312-.63329-80.44329-41.58032-10.96745 17.72992 83.63476 37.12523a11.89949 11.89949 0 1 0 11.78838-13.48252z" fill="#9e616a" transform="translate(-223.5 -209.52444)"/><circle cx="736.07056" cy="267.73324" fill="#2f2e41" r="35.53801" transform="matrix(.16018234 -.98708744 .98708744 .16018234 130.38899 741.8887)"/><circle cx="512.26421" cy="70.76964" fill="#a0616a" r="22.6708"/><ellipse cx="512.57057" cy="48.4052" fill="#2f2e41" rx="24.50896" ry="14.70538"/><circle cx="515.02148" cy="22.67078" fill="#2f2e41" r="14.70537"/><g transform="translate(-223.5 -209.52444)"><g fill="#2f2e41"><path d="m718.91431 224.22982a14.70692 14.70692 0 0 1 13.17358-14.62582 14.86918 14.86918 0 0 0 -1.53183-.07951 14.70539 14.70539 0 0 0 0 29.41076 14.86917 14.86917 0 0 0 1.53183-.0795 14.70693 14.70693 0 0 1 -13.17358-14.62593z"/><path d="m723.97781 336.57587 1.82839-17.57652s24.80562-16.34735 33.23625-6.68558l50.38786 86.21281s31.323 11.13572 30.21575 53.658l-1.498 205.5398-35.51706 3.89388-21.568-160.25016-19.48674 166.026-41.35039-1.29476 3.72025-109.37556 19.71737-106.02732-.1889-35.18233-8.68389-14.19874s-15.90728-6.39038-16.35213-24.44983l-.34823-25.38571z"/><path d="m749.98787 317.13922.48927-8.23917s75.032 19.772 69.07954 33.90894-17.11318 18.60128-17.11318 18.60128l-43.155-17.11318z"/><path d="m730.38083 337.64127-5.64584-6.02061s-45.03187 63.189-31.41423 70.24916 25.0524 3.35351 25.0524 3.35351l22.22821-40.75684z"/></g><path d="m640.24484 543.397 282.56085-56.404-23.614-118.29636-282.5608 56.40396z" fill="#fff"/><path d="m925.11811 488.5359-286.41611 57.17351-24.38357-122.15171 286.41613-57.1735zm-283.33049 52.54873 278.70571-55.63437-22.84441-114.44126-278.70571 55.63435z" fill="#e4e4e4"/></g><path d="m649.55431 429.35966h233.18398v6.07982h-233.18398z" fill="#e4e4e4" transform="matrix(.98065284 -.19575497 .19575497 .98065284 -293.32159 -51.18186)"/><path d="m654.1884 452.57456h233.18398v6.07982h-233.18398z" fill="#e4e4e4" transform="matrix(.98065284 -.19575497 .19575497 .98065284 -297.77636 -49.82557)"/><path d="m658.84925 475.92356h233.18398v6.07982h-233.18398z" fill="#e4e4e4" transform="matrix(.98065284 -.19575497 .19575497 .98065284 -302.25687 -48.46145)"/><g transform="translate(-223.5 -209.52444)"><path d="m770.62873 443.64449-7.99773 1.59651a2.24918 2.24918 0 0 1 -2.643-1.76342l-3.78125-18.94258a2.24917 2.24917 0 0 1 1.76341-2.643l7.99772-1.59648a2.24918 2.24918 0 0 1 2.643 1.76342l3.78125 18.94256a2.24917 2.24917 0 0 1 -1.7634 2.64299z" fill="#fe6b8b"/><path d="m861.72707 449.59966-7.99771 1.59648a2.24916 2.24916 0 0 1 -2.643-1.76342l-3.78126-18.94255a2.24917 2.24917 0 0 1 1.76342-2.643l7.99772-1.59648a2.24917 2.24917 0 0 1 2.643 1.76342l3.78125 18.94255a2.24916 2.24916 0 0 1 -1.76342 2.643z" fill="#fe6b8b"/><path d="m812.39337 483.72688-7.99771 1.59648a2.24916 2.24916 0 0 1 -2.643-1.76342l-3.78126-18.94255a2.24917 2.24917 0 0 1 1.76342-2.643l7.99772-1.59648a2.24917 2.24917 0 0 1 2.643 1.76342l3.78125 18.94256a2.24915 2.24915 0 0 1 -1.76342 2.64299z" fill="#fe6b8b"/><path d="m975.5 690.47556h-751a1 1 0 0 1 0-2h751a1 1 0 0 1 0 2z" fill="#cacaca"/></g></svg>