<svg width="1100" height="1350" viewBox="0 0 1100 1350" fill="none" xmlns="http://www.w3.org/2000/svg">
<path d="M450 0V50H350V100H200V150H150V500H250V400H550V500H600V400H850V150H800V100H600V50H700V0H450Z" fill="white"/>
<path d="M250 400V500H50V650H100V550H250V700H550V550H600V700H900V400H600V500H550V400H250Z" fill="#078941"/>
<path d="M300 450V650H400V450H300Z" fill="white"/>
<path d="M400 450V650H500V450H400Z" fill="#010101"/>
<path d="M650 450V650H750V450H650Z" fill="white"/>
<path d="M750 450V650H850V450H750Z" fill="#010101"/>
<path d="M150 550V700H50V900H200V1050H550V1000H850V950H450V850H400V750H850V700H600V550H550V700H250V550H150Z" fill="white"/>
<path d="M100 750V850H200V800H150V750H100Z" fill="#F1F1F1"/>
<path d="M400 750V850H450V950H1100V900H500V850H1100V800H1000V750H650V800H600V750H550V800H500V750H400Z" fill="#FFB913"/>
<path d="M500 750V800H550V750H500ZM600 750V800H650V750H600ZM500 850V900H1100V850H500Z" fill="#FFA31F"/>
<path d="M150 1050V1100H50V1150H0V1350H200V1200H250V1350H750V1150H700V1100H650V1050H150Z" fill="#059D43"/>
<path d="M200 1200V1350H250V1200H200Z" fill="#078941"/>
<path d="M450 1200V1300H500V1250H550V1300H650V1200H600V1250H550V1200H450Z" fill="#ABF131"/>
</svg>
