<svg fill="none" height="32" viewBox="0 0 32 32" width="32" xmlns="http://www.w3.org/2000/svg"><g fill="#f4041f"><path d="m12 13h-1v1h1z"/><path d="m13 13h-1v1h1z"/><path d="m14 13h-1v1h1z"/><path d="m15 13h-1v1h1z"/><path d="m16 13h-1v1h1z"/><path d="m17 13h-1v1h1z"/><path d="m19 13h-1v1h1z"/><path d="m20 13h-1v1h1z"/><path d="m21 13h-1v1h1z"/><path d="m22 13h-1v1h1z"/><path d="m23 13h-1v1h1z"/><path d="m24 13h-1v1h1z"/><path d="m12 14h-1v1h1z"/></g><path d="m13 14h-1v1h1z" fill="#fff"/><path d="m14 14h-1v1h1z" fill="#fff"/><path d="m15 14h-1v1h1z" fill="#1c121c"/><path d="m16 14h-1v1h1z" fill="#1c121c"/><path d="m17 14h-1v1h1z" fill="#ff3b51"/><path d="m19 14h-1v1h1z" fill="#ff3b51"/><path d="m20 14h-1v1h1z" fill="#fff"/><path d="m21 14h-1v1h1z" fill="#fff"/><path d="m22 14h-1v1h1z" fill="#1c121c"/><path d="m23 14h-1v1h1z" fill="#1c121c"/><path d="m24 14h-1v1h1z" fill="#f4041f"/><path d="m8 15h-1v1h1z" fill="#f4041f"/><path d="m9 15h-1v1h1z" fill="#f4041f"/><path d="m10 15h-1v1h1z" fill="#f4041f"/><path d="m11 15h-1v1h1z" fill="#f4041f"/><path d="m12 15h-1v1h1z" fill="#f4041f"/><path d="m13 15h-1v1h1z" fill="#fff"/><path d="m14 15h-1v1h1z" fill="#fff"/><path d="m15 15h-1v1h1z" fill="#1c121c"/><path d="m16 15h-1v1h1z" fill="#1c121c"/><path d="m17 15h-1v1h1z" fill="#f4041f"/><path d="m18 15h-1v1h1z" fill="#ff3b51"/><path d="m19 15h-1v1h1z" fill="#f4041f"/><path d="m20 15h-1v1h1z" fill="#fff"/><path d="m21 15h-1v1h1z" fill="#fff"/><path d="m22 15h-1v1h1z" fill="#1c121c"/><path d="m23 15h-1v1h1z" fill="#1c121c"/><path d="m24 15h-1v1h1z" fill="#f4041f"/><path d="m8 16h-1v1h1z" fill="#f4041f"/><path d="m12 16h-1v1h1z" fill="#f4041f"/><path d="m13 16h-1v1h1z" fill="#fff"/><path d="m14 16h-1v1h1z" fill="#fff"/><path d="m15 16h-1v1h1z" fill="#1c121c"/><path d="m16 16h-1v1h1z" fill="#1c121c"/><path d="m17 16h-1v1h1z" fill="#f4041f"/><path d="m19 16h-1v1h1z" fill="#f4041f"/><path d="m20 16h-1v1h1z" fill="#fff"/><path d="m21 16h-1v1h1z" fill="#fff"/><path d="m22 16h-1v1h1z" fill="#1c121c"/><path d="m23 16h-1v1h1z" fill="#1c121c"/><path d="m24 16h-1v1h1z" fill="#f4041f"/><path d="m8 17h-1v1h1z" fill="#f4041f"/><path d="m12 17h-1v1h1z" fill="#f4041f"/><path d="m13 17h-1v1h1z" fill="#fff"/><path d="m14 17h-1v1h1z" fill="#fff"/><path d="m15 17h-1v1h1z" fill="#1c121c"/><path d="m16 17h-1v1h1z" fill="#1c121c"/><path d="m17 17h-1v1h1z" fill="#f4041f"/><path d="m19 17h-1v1h1z" fill="#f4041f"/><path d="m20 17h-1v1h1z" fill="#fff"/><path d="m21 17h-1v1h1z" fill="#fff"/><path d="m22 17h-1v1h1z" fill="#1c121c"/><path d="m23 17h-1v1h1z" fill="#1c121c"/><path d="m24 17h-1v1h1z" fill="#f4041f"/><path d="m12 18h-1v1h1z" fill="#f4041f"/><path d="m13 18h-1v1h1z" fill="#f4041f"/><path d="m14 18h-1v1h1z" fill="#f4041f"/><path d="m15 18h-1v1h1z" fill="#f4041f"/><path d="m16 18h-1v1h1z" fill="#f4041f"/><path d="m17 18h-1v1h1z" fill="#f4041f"/><path d="m19 18h-1v1h1z" fill="#f4041f"/><path d="m20 18h-1v1h1z" fill="#f4041f"/><path d="m21 18h-1v1h1z" fill="#f4041f"/><path d="m22 18h-1v1h1z" fill="#f4041f"/><path d="m23 18h-1v1h1z" fill="#f4041f"/><path d="m24 18h-1v1h1z" fill="#f4041f"/></svg>