<svg fill="none" height="1391" viewBox="0 0 1728 1391" width="1728" xmlns="http://www.w3.org/2000/svg"><g fill="#029155"><path d="m-89.2891 114.376 31.7617-18.3377 38.3311 66.3917 24.96614 6.567 6.79556-24.905-38.3311-66.3913 31.76173-18.3376 45.81877 79.5019-20.1094 75.05-75.0534-20.108z"/><path d="m310.189-73.9133 63.524-36.6757 18.337 31.7621-31.761 18.3377 36.675 63.52335-63.523 36.67525-18.338-31.76169 31.762-18.33761z"/><path d="m56.0938 72.7876 55.0132 95.2854 31.761-18.338-36.675-63.5233 31.762-18.3377-18.338-31.7617z"/><path clip-rule="evenodd" d="m164.807-32.3254 18.337 31.761672 63.524-36.675272 55.013 95.2851-63.523 36.6749-18.338-31.7617 31.761-18.3373-18.337-31.7617-31.762 18.3377 18.209 31.5398-31.761 18.3376-54.885-95.0632z" fill-rule="evenodd"/><path d="m56.9375 367.647 31.7617-18.338 38.3308 66.392 24.966 6.567 6.796-24.905-38.331-66.391 31.762-18.338 45.818 79.501-20.109 75.051-75.053-20.108z"/><path d="m456.416 179.357 63.523-36.675 18.338 31.762-31.762 18.337 36.676 63.524-63.524 36.675-18.337-31.762 31.761-18.337z"/><path d="m202.32 326.059 55.013 95.285 31.762-18.338-36.675-63.523 31.761-18.338-18.337-31.762z"/><path clip-rule="evenodd" d="m311.031 220.945 18.338 31.762 63.523-36.675 55.013 95.285-63.523 36.675-18.338-31.762 31.762-18.337-18.338-31.762-31.762 18.338 18.21 31.54-31.762 18.337-54.884-95.063z" fill-rule="evenodd"/><path d="m501.838 111.332-31.762 18.337-38.331-66.3911-24.966-6.5673-6.796 24.9049 38.331 66.3915-31.761 18.337-45.819-79.5011 20.109-75.0508 75.054 20.1085z"/><path d="m102.361 299.621-63.5231 36.675-18.3376-31.762 31.7617-18.337-36.6752-63.524 63.5234-36.675 18.3376 31.762-31.7617 18.337z"/><path d="m356.453 152.919-55.013-95.2847-31.761 18.3376 36.675 63.5231-31.762 18.338 18.338 31.762z"/><path clip-rule="evenodd" d="m247.744 258.032-18.337-31.762-63.524 36.676-55.013-95.286 95.285-55.012h.001l-31.762 18.337 18.466 31.984 31.761-18.337 54.885 95.062zm-36.675-63.523-31.762 18.337-18.337-31.762 31.761-18.337z" fill-rule="evenodd"/><path d="m648.064 364.602-31.761 18.338-38.331-66.392-24.966-6.567-6.796 24.905 38.331 66.391-31.762 18.338-45.818-79.501 20.109-75.051 75.053 20.108z"/><path d="m248.588 552.892-63.523 36.675-18.338-31.762 31.762-18.338-36.676-63.523 63.524-36.675 18.337 31.762-31.761 18.337z"/><path d="m502.682 406.19-55.013-95.285-31.762 18.338 36.675 63.523-31.761 18.338 18.337 31.761z"/><path clip-rule="evenodd" d="m393.971 511.303-18.338-31.762-63.523 36.675-55.013-95.285 63.523-36.675 18.337 31.762-31.761 18.337 18.338 31.762 31.761-18.338-18.209-31.54 31.762-18.337 54.884 95.063z" fill-rule="evenodd"/><path d="m203.512 621.517 31.761-18.338 38.332 66.392 24.966 6.567 6.795-24.905-38.331-66.391 31.762-18.338 45.819 79.501-20.11 75.051-75.053-20.108z"/><path d="m602.99 433.227 63.524-36.675 18.337 31.762-31.761 18.338 36.675 63.523-63.524 36.675-18.337-31.762 31.761-18.337z"/><path d="m348.896 579.929 55.013 95.285 31.762-18.338-36.675-63.523 31.761-18.338-18.337-31.761z"/><path clip-rule="evenodd" d="m457.605 474.815 18.338 31.762 63.523-36.675 55.013 95.285-63.523 36.675-18.337-31.762 31.761-18.337-18.338-31.762-31.761 18.338 18.209 31.54-31.761 18.338-54.885-95.064z" fill-rule="evenodd"/><path d="m349.738 874.787 31.762-18.337 38.331 66.391 24.966 6.567 6.796-24.905-38.331-66.391 31.761-18.338 45.819 79.502-20.109 75.051-75.054-20.109z"/><path d="m749.217 686.498 63.523-36.675 18.338 31.761-31.762 18.338 36.675 63.523-63.523 36.676-18.338-31.762 31.762-18.338z"/><path d="m495.121 833.199 55.013 95.285 31.762-18.337-36.676-63.524 31.762-18.337-18.338-31.762z"/><path clip-rule="evenodd" d="m603.832 728.086 18.338 31.762 63.523-36.675 55.013 95.285-63.523 36.675-18.338-31.762 31.762-18.337-18.338-31.762-31.762 18.337 18.21 31.54-31.762 18.338-54.885-95.063z" fill-rule="evenodd"/><path d="m794.637 618.473-31.762 18.337-38.331-66.391-24.966-6.567-6.796 24.905 38.331 66.391-31.761 18.338-45.819-79.502 20.109-75.051 75.054 20.109z"/><path d="m395.16 806.762-63.523 36.675-18.338-31.761 31.762-18.338-36.675-63.523 63.523-36.676 18.338 31.762-31.762 18.338z"/><path d="m649.252 660.061-55.013-95.285-31.762 18.337 36.676 63.524-31.762 18.337 18.338 31.762z"/><path clip-rule="evenodd" d="m540.543 765.173-18.338-31.761-63.523 36.675-55.013-95.285 63.523-36.675 18.338 31.762-31.762 18.337 18.338 31.762 31.762-18.338-18.21-31.54 31.762-18.338 54.885 95.064z" fill-rule="evenodd"/><path d="m940.865 871.743-31.761 18.338-38.332-66.392-24.966-6.567-6.795 24.905 38.331 66.391-31.762 18.338-45.819-79.501 20.11-75.051 75.053 20.108z"/><path d="m541.387 1060.03-63.524 36.68-18.337-31.76 31.761-18.34-36.675-63.525 63.524-36.675 18.337 31.762-31.762 18.337z"/><path d="m795.482 913.331-55.012-95.285-31.762 18.338 36.675 63.523-31.762 18.338 18.338 31.761z"/><path clip-rule="evenodd" d="m686.772 1018.44-18.338-31.758-63.524 36.678-55.012-95.288 63.522-36.674 18.338 31.761-31.761 18.337 18.338 31.762 31.761-18.337-18.209-31.54 31.762-18.338 54.884 95.067z" fill-rule="evenodd"/><path d="m10.8828 436.586 63.5234-36.675 18.3376 31.762-31.7617 18.337 36.6753 63.524-63.5234 36.675-18.3377-31.762 31.7617-18.337z"/><path clip-rule="evenodd" d="m-134.5 478.175 18.338 31.762 63.523-36.676 55.01288 95.285-63.52298 36.675-18.3376-31.761 31.7613-18.338-18.3377-31.761-31.7617 18.337 18.2097 31.54-31.7619 18.338-54.885-95.064z" fill-rule="evenodd"/><path d="m56.3066 368.561-31.7617 18.338-38.3311-66.391-24.9661-6.568-6.7956 24.905 38.33114 66.392-31.76174 18.337-45.8187-79.501 20.1094-75.051 75.0534 20.108z"/><path d="m202.531 621.832-31.761 18.338-38.332-66.391-24.966-6.568-6.795 24.905 38.331 66.392-31.762 18.337-45.8186-79.501 20.1094-75.051 75.0532 20.108z"/><path d="m57.1465 663.42-55.01288-95.285-31.76172 18.338 36.67526 63.523-31.76166 18.338 18.33759 31.762z"/><path d="m157.457 690.457 63.523-36.676 18.338 31.762-31.762 18.338 36.676 63.523-63.524 36.675-18.337-31.761 31.761-18.338z"/><path d="m-96.6367 837.158 55.0129 95.285 31.76166-18.337-36.67526-63.524 31.7617-18.337-18.3376-31.762z"/><path clip-rule="evenodd" d="m12.0722 732.045 18.3377 31.762 63.5234-36.675 55.0127 95.285-63.5228 36.675-18.3376-31.762 31.7612-18.337-18.3376-31.762-31.7617 18.338 18.2096 31.54-31.7617 18.337-54.8849-95.063z" fill-rule="evenodd"/><path d="m-95.7969 1132.02 31.7617-18.34 38.3311 66.39 24.966124 6.57 6.795606-24.91-38.33113-66.39 31.761717-18.34 45.818783 79.51-20.1094 75.05-75.0535-20.11z"/><path d="m303.68 943.727 63.523-36.675 18.338 31.762-31.762 18.337 36.675 63.519-63.523 36.68-18.338-31.76 31.762-18.34z"/><path d="m49.5879 1090.43 55.0131 95.28 31.761-18.33-36.6748-63.53 31.7618-18.33-18.338-31.77z"/><path clip-rule="evenodd" d="m158.297 985.316 18.337 31.764 63.524-36.678 55.013 95.288-95.285 55.01 31.762-18.34-18.338-31.76 31.761-18.34-18.337-31.76-31.762 18.34 18.209 31.54-31.761 18.34-54.885-95.07z" fill-rule="evenodd"/><path d="m349.105 875.702-31.761 18.338-38.331-66.391-24.966-6.568-6.796 24.905 38.331 66.392-31.762 18.337-45.818-79.501 20.109-75.051 75.053 20.108z"/><path d="m203.721 917.29-55.013-95.285-31.762 18.338 36.675 63.523-31.761 18.338 18.337 31.762z"/><path clip-rule="evenodd" d="m95.0098 1022.4-18.3376-31.758-63.5234 36.678-55.0129-95.288 95.2851-55.013h.0001l-31.7624 18.339 18.3374 31.761-31.76088 18.337 18.33758 31.762 31.7617-18.338-18.2092-31.539 31.7617-18.338 54.884 95.067z" fill-rule="evenodd"/><path d="m495.33 1128.97-31.762 18.34-38.331-66.39-24.966-6.57-6.795 24.91 38.331 66.39-31.762 18.34-45.819-79.51 20.11-75.05 75.053 20.11z"/><path d="m95.8516 1317.26-63.5234 36.68-18.3376-31.76 31.7617-18.34-36.67529-63.53 63.52339-36.67 18.3376 31.76-31.7617 18.34z"/><path d="m349.945 1170.56-55.013-95.28-31.761 18.33 36.675 63.53-31.762 18.33 18.338 31.77z"/><path clip-rule="evenodd" d="m241.236 1275.67-18.337-31.76-63.524 36.68-55.013-95.29 63.524-36.67 18.337 31.76-31.761 18.34 18.337 31.76 31.762-18.34-18.209-31.54 31.761-18.34 54.885 95.07z" fill-rule="evenodd"/><path d="m1139.11 38.7468-63.52 36.6752-18.34-31.7617 31.76-18.3376-36.67-63.5234 63.52-36.6752 18.34 31.7617-31.76 18.3376z"/><path clip-rule="evenodd" d="m1284.49-2.84231-18.33-31.76169-63.53 36.67524-55.01-95.28514 63.52-36.6751 18.34 31.7618-31.76 18.3374 18.34 31.7617 31.76-18.3376-18.21-31.5399 31.76-18.3374 54.89 95.0631z" fill-rule="evenodd"/><path d="m1094.03 107.372 31.76-18.338 38.34 66.391 24.96 6.568 6.8-24.905-38.33-66.3917 31.76-18.3376 45.82 79.5013-20.11 75.051-75.06-20.109z"/><path d="m1493.51-80.9179 63.53-36.6751 18.33 31.7615-31.76 18.3376 36.68 63.52341-63.53 36.67529-18.33-31.76173 31.76-18.33767z"/><path d="m1239.42 65.783 55.01 95.285 31.76-18.338-36.67-63.523 31.76-18.3376-18.34-31.7617z"/><path clip-rule="evenodd" d="m1348.13-39.3301 18.33 31.76173 63.53-36.67523 55.01 95.2851-63.52 36.6751-18.34-31.7617 31.76-18.3375-18.34-31.7617-31.76 18.3376 18.21 31.5399-31.76 18.3377-54.88-95.0633z" fill-rule="evenodd"/><path d="m1240.26 360.643 31.76-18.338 38.33 66.391 24.97 6.568 6.79-24.905-38.33-66.392 31.76-18.337 45.82 79.501-20.11 75.051-75.05-20.109z"/><path d="m1639.74 172.353 63.52-36.675 18.34 31.762-31.76 18.337 36.67 63.524-63.52 36.675-18.34-31.762 31.76-18.337z"/><path d="m1385.64 319.055 55.02 95.285 31.76-18.338-36.68-63.523 31.76-18.338-18.33-31.762z"/><path clip-rule="evenodd" d="m1494.36 213.941 18.33 31.762 63.53-36.675 55.01 95.285-63.52 36.675-18.34-31.762 31.76-18.337-18.34-31.762-31.76 18.338 18.21 31.54-31.76 18.337-54.89-95.063z" fill-rule="evenodd"/><path d="m1685.16 104.328-31.76 18.338-38.33-66.3916-24.97-6.5673-6.79 24.905 38.33 66.3909-31.76 18.338-45.82-79.5015 20.11-75.05078 75.05 20.10848z"/><path d="m1285.68 292.617-63.52 36.676-18.34-31.762 31.76-18.338-36.67-63.523 63.52-36.675 18.34 31.761-31.76 18.338z"/><path d="m1539.78 145.916-55.02-95.2848-31.76 18.3376 36.68 63.5232-31.77 18.338 18.34 31.762z"/><path clip-rule="evenodd" d="m1431.07 251.029-18.34-31.762-63.52 36.675-55.02-95.285 63.53-36.675 18.33 31.762-31.76 18.337 18.34 31.762 31.76-18.338-18.21-31.54 31.76-18.337 54.89 95.063z" fill-rule="evenodd"/><path d="m1831.39 357.598-31.76 18.338-38.34-66.392-24.96-6.567-6.8 24.905 38.33 66.391-31.76 18.338-45.82-79.501 20.11-75.051 75.06 20.108z"/><path d="m1431.91 545.888-63.53 36.675-18.33-31.762 31.76-18.338-36.68-63.523 63.53-36.675 18.33 31.762-31.76 18.337z"/><path d="m1686 399.186-55.01-95.285-31.76 18.338 36.67 63.523-31.76 18.338 18.34 31.761z"/><path clip-rule="evenodd" d="m1577.29 504.299-18.33-31.762-63.53 36.675-55.01-95.285 95.28-55.012-31.76 18.338 18.34 31.761-31.76 18.337 18.34 31.762 31.76-18.337-18.21-31.54 31.76-18.338 54.88 95.063z" fill-rule="evenodd"/><path d="m501.926 110.732 31.761-18.3379 38.332 66.3909 24.966 6.568 6.795-24.905-38.331-66.3916 31.762-18.3376 45.819 79.5012-20.11 75.051-75.053-20.108z"/><path d="m901.402-77.5576 63.524-36.6754 18.337 31.7618-31.761 18.3377 36.675 63.523366-63.523 36.675234-18.338-31.76168 31.762-18.33762z"/><path d="m647.311 69.1433 55.012 95.2847 31.762-18.337-36.675-63.5236 31.762-18.3376-18.338-31.7617z"/><path clip-rule="evenodd" d="m756.02-35.9695 18.337 31.76173 63.524-36.67523 55.012 95.2851-63.523 36.675-18.337-31.7617 31.761-18.3374-18.338-31.76171-31.761 18.33761 18.209 31.54-31.761 18.3377-54.885-95.0634z" fill-rule="evenodd"/><path d="m547.352 42.7053-63.524 36.6752-18.337-31.7617 31.761-18.3376-36.675-63.5234 63.523-36.6752 18.338 31.7617-31.762 18.3376z"/><path clip-rule="evenodd" d="m692.732 1.11741-18.337-31.76171-63.524 36.67526-55.012-95.28506 95.285-55.0129-31.761 18.337 18.466 31.9842 31.761-18.3372 54.884 95.0628zm-36.675-63.52341-31.762 18.3376-18.337-31.7617 31.762-18.3376z" fill-rule="evenodd"/><path d="m1093.05 107.687-31.76 18.338-38.33-66.3914-24.966-6.5673-6.796 24.9049 38.332 66.3918-31.762 18.337-45.819-79.5014 20.109-75.05074 75.052 20.10844z"/><path d="m693.576 295.977-63.523 36.675-18.338-31.762 31.762-18.338-36.675-63.523 63.523-36.675 18.338 31.762-31.762 18.337z"/><path d="m947.668 149.275-55.013-95.285-31.762 18.3377 36.676 63.5233-31.762 18.338 18.338 31.761z"/><path clip-rule="evenodd" d="m838.957 254.388-18.338-31.761-63.523 36.675-55.013-95.285 63.523-36.675 18.338 31.761-31.762 18.338 18.338 31.762 31.762-18.338-18.21-31.54 31.762-18.338 54.885 95.064z" fill-rule="evenodd"/><path d="m648.5 364.601 31.762-18.338 38.331 66.392 24.966 6.567 6.796-24.905-38.332-66.391 31.762-18.338 45.819 79.501-20.11 75.051-75.053-20.108z"/><path d="m1047.98 176.311 63.52-36.675 18.34 31.762-31.76 18.337 36.67 63.524-63.52 36.675-18.34-31.762 31.76-18.337z"/><path d="m793.885 323.013 55.013 95.285 31.761-18.338-36.675-63.523 31.762-18.338-18.338-31.761z"/><path clip-rule="evenodd" d="m902.594 217.9 18.337 31.761 63.524-36.675 55.015 95.285-63.525 36.675-18.338-31.761 31.761-18.338-18.337-31.761-31.762 18.337 18.209 31.54-31.761 18.338-54.885-95.064z" fill-rule="evenodd"/><path d="m794.727 617.871 31.761-18.337 38.331 66.391 24.966 6.567 6.796-24.905-38.331-66.391 31.762-18.338 45.818 79.502-20.109 75.051-75.053-20.109z"/><path d="m1194.2 429.582 63.53-36.675 18.33 31.761-31.76 18.338 36.68 63.523-63.53 36.676-18.33-31.762 31.76-18.338z"/><path d="m940.111 576.283 55.013 95.285 31.766-18.337-36.679-63.524 31.759-18.337-18.34-31.762z"/><path clip-rule="evenodd" d="m1048.82 471.171 18.34 31.761 63.52-36.675 55.01 95.285-63.52 36.675-18.34-31.762 31.76-18.337-18.33-31.762-31.76 18.338 18.2 31.54-31.76 18.337-54.88-95.063z" fill-rule="evenodd"/><path d="m1239.63 361.557-31.76 18.338-38.34-66.391-24.96-6.567-6.8 24.904 38.33 66.392-31.76 18.337-45.82-79.501 20.11-75.051 75.06 20.109z"/><path d="m840.15 549.847-63.523 36.675-18.338-31.762 31.762-18.337-36.675-63.524 63.523-36.675 18.338 31.762-31.762 18.337z"/><path d="m1094.24 403.146-55.01-95.286-31.76 18.338 36.67 63.523-31.76 18.338 18.34 31.762z"/><path clip-rule="evenodd" d="m985.531 508.259-18.337-31.762-63.524 36.675-55.013-95.285 95.285-55.013-31.762 18.339 18.338 31.761-31.761 18.337 18.337 31.762 31.762-18.338-18.209-31.539 31.761-18.338 54.882 95.063z" fill-rule="evenodd"/><path d="m1385.85 614.828-31.76 18.338-38.33-66.392-24.97-6.567-6.79 24.905 38.33 66.391-31.76 18.338-45.82-79.502 20.11-75.05 75.05 20.108z"/><path d="m986.375 803.117-63.523 36.676-18.338-31.762 31.762-18.338-36.676-63.523 63.524-36.675 18.337 31.761-31.761 18.338z"/><path d="m1240.47 656.416-55.01-95.285-31.77 18.338 36.68 63.523-31.76 18.338 18.34 31.761z"/><path clip-rule="evenodd" d="m1131.76 761.529-18.34-31.762-63.52 36.675-55.014-95.285 63.524-36.675 18.34 31.762-31.76 18.337 18.33 31.762 31.76-18.338-18.21-31.54 31.77-18.337 54.88 95.063z" fill-rule="evenodd"/><path d="m-90.2891 114.376 31.7617-18.3379 38.3311 66.3909 24.96614 6.568 6.79556-24.905-38.3311-66.3915 31.76173-18.3377 45.81877 79.5012-20.1094 75.051-75.0534-20.108z"/><path d="m55.0938 72.7874 55.0132 95.2846 31.761-18.337-36.675-63.5236 31.762-18.3376-18.338-31.7617z"/><path d="m55.9375 367.647 31.7617-18.338 38.3308 66.391 24.966 6.568 6.796-24.905-38.331-66.392 31.762-18.337 45.818 79.501-20.109 75.051-75.053-20.108z"/><path d="m455.416 179.357 63.523-36.675 18.338 31.762-31.762 18.337 36.676 63.524-63.524 36.675-18.337-31.762 31.761-18.338z"/><path d="m201.32 326.058 55.013 95.286 31.762-18.338-36.675-63.523 31.761-18.338-18.337-31.762z"/><path clip-rule="evenodd" d="m310.031 220.945 18.338 31.762 63.523-36.675 55.013 95.285-63.523 36.675-18.338-31.762 31.762-18.337-18.338-31.762-31.762 18.337 18.21 31.54-31.762 18.338-54.884-95.063z" fill-rule="evenodd"/><path d="m500.838 111.331-31.762 18.338-38.331-66.3914-24.966-6.5673-6.796 24.9049 38.331 66.3918-31.761 18.337-45.819-79.5013 20.109-75.0508 75.054 20.1085z"/><path d="m101.361 299.62-63.5231 36.676-18.3376-31.762 31.7617-18.338-36.6752-63.523 63.5234-36.675 18.3376 31.761-31.7617 18.338z"/><path d="m355.453 152.919-55.013-95.2849-31.761 18.3376 36.675 63.5233-31.762 18.338 18.338 31.761z"/><path clip-rule="evenodd" d="m246.744 258.032-18.337-31.762-63.524 36.675-55.013-95.285 95.285-55.013.001.001-31.762 18.337 18.466 31.984 31.761-18.338 54.885 95.063zm-36.675-63.524-31.762 18.338-18.337-31.762 31.761-18.337z" fill-rule="evenodd"/><path d="m647.064 364.602-31.761 18.338-38.331-66.392-24.966-6.567-6.796 24.905 38.331 66.391-31.762 18.338-45.818-79.502 20.109-75.05 75.053 20.108z"/><path d="m247.588 552.891-63.523 36.676-18.338-31.762 31.762-18.338-36.676-63.523 63.524-36.675 18.337 31.761-31.761 18.338z"/><path d="m501.682 406.19-55.013-95.285-31.762 18.337 36.675 63.524-31.761 18.337 18.337 31.762z"/><path clip-rule="evenodd" d="m392.971 511.303-18.338-31.762-63.523 36.675-55.013-95.285 63.523-36.675 18.337 31.762-31.761 18.337 18.338 31.762 31.761-18.338-18.209-31.54 31.762-18.337 54.884 95.063z" fill-rule="evenodd"/><path d="m202.512 621.517 31.761-18.338 38.332 66.391 24.966 6.568 6.795-24.905-38.331-66.392 31.762-18.337 45.819 79.501-20.11 75.051-75.053-20.108z"/><path d="m601.99 433.227 63.524-36.675 18.337 31.762-31.761 18.337 36.675 63.524-63.524 36.675-18.337-31.762 31.761-18.337z"/><path d="m347.896 579.929 55.013 95.285 31.762-18.338-36.675-63.523 31.761-18.338-18.337-31.762z"/><path clip-rule="evenodd" d="m456.605 474.815 18.338 31.762 63.523-36.675 55.013 95.285-63.523 36.675-18.337-31.762 31.761-18.337-18.338-31.762-31.761 18.338 18.209 31.54-31.761 18.337-54.885-95.063z" fill-rule="evenodd"/><path d="m793.637 618.472-31.762 18.338-38.331-66.391-24.966-6.568-6.796 24.905 38.331 66.392-31.761 18.337-45.819-79.501 20.109-75.051 75.054 20.108z"/><path d="m648.252 660.06-55.013-95.285-31.762 18.338 36.676 63.523-31.762 18.338 18.338 31.762z"/><path d="m9.88279 436.586 63.52341-36.675 18.3376 31.761-31.7617 18.338 36.6753 63.523-63.5234 36.676-18.3377-31.762 31.7617-18.338z"/><path clip-rule="evenodd" d="m-135.5 478.175 18.338 31.761 63.523-36.675 55.01288 95.285-63.52298 36.675-18.3376-31.762 31.7613-18.337-18.3377-31.762-31.7617 18.338 18.2097 31.54-31.7619 18.338-54.885-95.064z" fill-rule="evenodd"/><path d="m55.3066 368.561-31.7617 18.338-38.3311-66.392-24.9661-6.567-6.7956 24.905 38.33114 66.391-31.76174 18.338-45.8187-79.502 20.1094-75.05 75.05343 20.108z"/><path d="m201.531 621.832-31.761 18.338-38.332-66.392-24.966-6.567-6.7953 24.905 38.3313 66.391-31.762 18.338-45.8186-79.502 20.1094-75.05 75.0532 20.108z"/><path d="m56.1465 663.42-55.01288-95.285-31.76172 18.338 36.67526 63.523-31.76166 18.338 18.33759 31.761z"/><path d="m1093.04 107.371 31.76-18.3373 38.33 66.3913 24.96 6.567 6.8-24.905-38.33-66.3909 31.76-18.3376 45.82 79.5015-20.11 75.051-75.05-20.109z"/><path d="m1238.42 65.7827 55.01 95.2853 31.76-18.338-36.67-63.5232 31.76-18.3376-18.34-31.7617z"/><path d="m1239.26 360.642 31.76-18.337 38.33 66.391 24.97 6.567 6.8-24.905-38.33-66.391 31.76-18.338 45.82 79.502-20.11 75.051-75.06-20.109z"/><path d="m1384.64 319.054 55.02 95.285 31.76-18.337-36.68-63.524 31.77-18.337-18.34-31.762z"/><path d="m1284.69 292.617-63.53 36.675-18.34-31.761 31.77-18.338-36.68-63.523 63.52-36.676 18.34 31.762-31.76 18.338z"/><path clip-rule="evenodd" d="m1430.07 251.028-18.34-31.761-63.52 36.675-55.02-95.285 63.53-36.675 18.33 31.762-31.76 18.337 18.34 31.762 31.76-18.338-18.21-31.54 31.77-18.337 54.88 95.063z" fill-rule="evenodd"/><path d="m1430.91 545.887-63.52 36.676-18.34-31.762 31.76-18.338-36.67-63.523 63.52-36.675 18.34 31.761-31.77 18.338z"/><path d="m500.928 110.731 31.761-18.3372 38.332 66.3912 24.966 6.567 6.795-24.905-38.331-66.3908 31.762-18.3376 45.819 79.5014-20.11 75.051-75.053-20.109z"/><path d="m646.312 69.1431 55.013 95.2849 31.762-18.337-36.675-63.5239 31.762-18.3376-18.338-31.7617z"/><path d="m1092.05 107.687-31.76 18.338-38.33-66.3917-24.964-6.5673-6.796 24.9049 38.33 66.3911-31.76 18.338-45.819-79.5016 20.109-75.05079 75.05 20.10849z"/><path d="m692.578 295.976-63.523 36.676-18.338-31.762 31.762-18.338-36.675-63.523 63.523-36.675 18.338 31.761-31.762 18.338z"/><path d="m946.67 149.275-55.013-95.2852-31.762 18.3376 36.676 63.5236-31.762 18.337 18.338 31.762z"/><path clip-rule="evenodd" d="m837.959 254.388-18.338-31.762-63.523 36.676-55.013-95.286 63.523-36.675 18.338 31.762-31.762 18.338 18.338 31.761 31.762-18.337-18.21-31.541 31.762-18.337 54.885 95.063z" fill-rule="evenodd"/><path d="m647.502 364.601 31.762-18.338 38.331 66.391 24.966 6.568 6.795-24.905-38.331-66.392 31.762-18.337 45.819 79.501-20.11 75.051-75.053-20.109z"/><path d="m1046.98 176.311 63.52-36.675 18.34 31.762-31.76 18.337 36.68 63.524-63.53 36.675-18.34-31.762 31.77-18.337z"/><path d="m792.887 323.013 55.013 95.285 31.761-18.338-36.675-63.523 31.762-18.338-18.338-31.762z"/><path clip-rule="evenodd" d="m901.596 217.9 18.337 31.761 63.524-36.675 55.013 95.285-63.523 36.675-18.338-31.762 31.761-18.337-18.337-31.762-31.762 18.338 18.209 31.54-31.761 18.337-54.885-95.063z" fill-rule="evenodd"/><path d="m793.729 617.871 31.761-18.338 38.331 66.392 24.966 6.567 6.796-24.905-38.331-66.391 31.762-18.338 45.818 79.502-20.109 75.05-75.053-20.108z"/><path d="m1193.21 429.582 63.52-36.676 18.34 31.762-31.77 18.338 36.68 63.523-63.52 36.675-18.34-31.761 31.76-18.338z"/><path d="m939.113 576.283 55.013 95.285 31.764-18.337-36.677-63.524 31.757-18.337-18.33-31.762z"/><path clip-rule="evenodd" d="m1047.82 471.17 18.34 31.762 63.52-36.675 55.02 95.285-63.53 36.675-18.33-31.762 31.76-18.337-18.34-31.762-31.76 18.338 18.21 31.539-31.76 18.338-54.89-95.063z" fill-rule="evenodd"/><path d="m1238.63 361.557-31.76 18.338-38.33-66.391-24.97-6.568-6.8 24.905 38.34 66.391-31.77 18.338-45.81-79.501 20.1-75.051 75.06 20.108z"/><path d="m839.152 549.847-63.523 36.675-18.338-31.762 31.762-18.337-36.675-63.524 63.523-36.675 18.338 31.762-31.762 18.337z"/><path d="m1093.24 403.145-55.01-95.285-31.76 18.338 36.67 63.523-31.76 18.338 18.34 31.762z"/><path clip-rule="evenodd" d="m984.533 508.259-18.337-31.762-63.524 36.675-55.013-95.285 95.285-55.013-31.762 18.338 18.338 31.762-31.761 18.337 18.337 31.762 31.762-18.338-18.209-31.539 31.761-18.338 54.88 95.063z" fill-rule="evenodd"/><path d="m1384.86 614.828-31.77 18.337-38.33-66.391-24.96-6.567-6.8 24.905 38.33 66.391-31.76 18.338-45.82-79.502 20.11-75.051 75.05 20.109z"/><path d="m1239.47 656.416-55.01-95.285-31.76 18.337 36.67 63.524-31.76 18.337 18.34 31.762z"/></g></svg>